<mxfile host="app.diagrams.net" agent="Mozilla/5.0 (X11; Ubuntu; Linux x86_64; rv:138.0) Gecko/20100101 Firefox/138.0" version="27.0.4">
  <diagram name="第 1 页" id="6hpFpuirdhHZx59tErrK">
    <mxGraphModel dx="1164" dy="681" grid="1" gridSize="10" guides="1" tooltips="1" connect="1" arrows="1" fold="1" page="1" pageScale="1" pageWidth="827" pageHeight="1169" math="0" shadow="0">
      <root>
        <mxCell id="0" />
        <mxCell id="1" parent="0" />
        <mxCell id="Bt69vcLoT0_8ECt38-JR-3" value="" style="edgeStyle=orthogonalEdgeStyle;rounded=0;orthogonalLoop=1;jettySize=auto;html=1;" edge="1" parent="1" source="Bt69vcLoT0_8ECt38-JR-1" target="Bt69vcLoT0_8ECt38-JR-2">
          <mxGeometry relative="1" as="geometry" />
        </mxCell>
        <mxCell id="Bt69vcLoT0_8ECt38-JR-1" value="用户&lt;div&gt;语音输入&lt;/div&gt;" style="rounded=1;whiteSpace=wrap;html=1;fillColor=#dae8fc;strokeColor=#6c8ebf;" vertex="1" parent="1">
          <mxGeometry y="280" width="80" height="80" as="geometry" />
        </mxCell>
        <mxCell id="Bt69vcLoT0_8ECt38-JR-5" value="" style="edgeStyle=orthogonalEdgeStyle;rounded=0;orthogonalLoop=1;jettySize=auto;html=1;" edge="1" parent="1" source="Bt69vcLoT0_8ECt38-JR-2" target="Bt69vcLoT0_8ECt38-JR-4">
          <mxGeometry relative="1" as="geometry" />
        </mxCell>
        <mxCell id="Bt69vcLoT0_8ECt38-JR-2" value="&lt;div&gt;接收用户语音&lt;/div&gt;" style="rounded=1;whiteSpace=wrap;html=1;fillColor=#dae8fc;strokeColor=#6c8ebf;" vertex="1" parent="1">
          <mxGeometry x="120" y="280" width="80" height="80" as="geometry" />
        </mxCell>
        <mxCell id="Bt69vcLoT0_8ECt38-JR-4" value="&lt;div&gt;解析决策层&lt;/div&gt;&lt;div&gt;大模型&lt;/div&gt;" style="rounded=1;whiteSpace=wrap;html=1;fillColor=#dae8fc;strokeColor=#6c8ebf;" vertex="1" parent="1">
          <mxGeometry x="240" y="280" width="80" height="80" as="geometry" />
        </mxCell>
        <mxCell id="Bt69vcLoT0_8ECt38-JR-6" value="" style="edgeStyle=elbowEdgeStyle;elbow=horizontal;endArrow=classic;html=1;curved=0;rounded=0;endSize=8;startSize=8;" edge="1" parent="1">
          <mxGeometry width="50" height="50" relative="1" as="geometry">
            <mxPoint x="320" y="320" as="sourcePoint" />
            <mxPoint x="400" y="240" as="targetPoint" />
          </mxGeometry>
        </mxCell>
        <mxCell id="Bt69vcLoT0_8ECt38-JR-7" value="" style="edgeStyle=elbowEdgeStyle;elbow=horizontal;endArrow=classic;html=1;curved=0;rounded=0;endSize=8;startSize=8;" edge="1" parent="1">
          <mxGeometry width="50" height="50" relative="1" as="geometry">
            <mxPoint x="320" y="320" as="sourcePoint" />
            <mxPoint x="400" y="400" as="targetPoint" />
          </mxGeometry>
        </mxCell>
        <mxCell id="Bt69vcLoT0_8ECt38-JR-11" value="" style="edgeStyle=orthogonalEdgeStyle;rounded=0;orthogonalLoop=1;jettySize=auto;html=1;" edge="1" parent="1" source="Bt69vcLoT0_8ECt38-JR-8" target="Bt69vcLoT0_8ECt38-JR-10">
          <mxGeometry relative="1" as="geometry" />
        </mxCell>
        <mxCell id="Bt69vcLoT0_8ECt38-JR-8" value="&lt;div&gt;物理层&lt;/div&gt;&lt;div&gt;大模型&lt;/div&gt;" style="rounded=1;whiteSpace=wrap;html=1;fillColor=#dae8fc;strokeColor=#6c8ebf;" vertex="1" parent="1">
          <mxGeometry x="400" y="200" width="80" height="80" as="geometry" />
        </mxCell>
        <mxCell id="Bt69vcLoT0_8ECt38-JR-13" value="" style="edgeStyle=orthogonalEdgeStyle;rounded=0;orthogonalLoop=1;jettySize=auto;html=1;" edge="1" parent="1" source="Bt69vcLoT0_8ECt38-JR-9" target="Bt69vcLoT0_8ECt38-JR-12">
          <mxGeometry relative="1" as="geometry" />
        </mxCell>
        <mxCell id="Bt69vcLoT0_8ECt38-JR-9" value="&lt;div&gt;MAC层&lt;/div&gt;&lt;div&gt;大模型&lt;/div&gt;" style="rounded=1;whiteSpace=wrap;html=1;fillColor=#dae8fc;strokeColor=#6c8ebf;" vertex="1" parent="1">
          <mxGeometry x="400" y="360" width="80" height="80" as="geometry" />
        </mxCell>
        <mxCell id="Bt69vcLoT0_8ECt38-JR-10" value="&lt;div&gt;物理层&lt;/div&gt;&lt;div&gt;优化方案&lt;/div&gt;" style="rounded=1;whiteSpace=wrap;html=1;fillColor=#dae8fc;strokeColor=#6c8ebf;" vertex="1" parent="1">
          <mxGeometry x="520" y="200" width="80" height="80" as="geometry" />
        </mxCell>
        <mxCell id="Bt69vcLoT0_8ECt38-JR-12" value="&lt;div&gt;MAC层&lt;/div&gt;&lt;div&gt;优化方案&lt;/div&gt;" style="rounded=1;whiteSpace=wrap;html=1;fillColor=#dae8fc;strokeColor=#6c8ebf;" vertex="1" parent="1">
          <mxGeometry x="520" y="360" width="80" height="80" as="geometry" />
        </mxCell>
        <mxCell id="Bt69vcLoT0_8ECt38-JR-14" value="" style="edgeStyle=elbowEdgeStyle;elbow=horizontal;endArrow=classic;html=1;curved=0;rounded=0;endSize=8;startSize=8;" edge="1" parent="1">
          <mxGeometry width="50" height="50" relative="1" as="geometry">
            <mxPoint x="600" y="240" as="sourcePoint" />
            <mxPoint x="680" y="320" as="targetPoint" />
          </mxGeometry>
        </mxCell>
        <mxCell id="Bt69vcLoT0_8ECt38-JR-15" value="" style="edgeStyle=elbowEdgeStyle;elbow=horizontal;endArrow=classic;html=1;curved=0;rounded=0;endSize=8;startSize=8;" edge="1" parent="1">
          <mxGeometry width="50" height="50" relative="1" as="geometry">
            <mxPoint x="600" y="400" as="sourcePoint" />
            <mxPoint x="680" y="320" as="targetPoint" />
          </mxGeometry>
        </mxCell>
        <mxCell id="Bt69vcLoT0_8ECt38-JR-18" value="" style="edgeStyle=orthogonalEdgeStyle;rounded=0;orthogonalLoop=1;jettySize=auto;html=1;" edge="1" parent="1" source="Bt69vcLoT0_8ECt38-JR-16" target="Bt69vcLoT0_8ECt38-JR-17">
          <mxGeometry relative="1" as="geometry" />
        </mxCell>
        <mxCell id="Bt69vcLoT0_8ECt38-JR-16" value="最终优化方案" style="rounded=1;whiteSpace=wrap;html=1;fillColor=#dae8fc;strokeColor=#6c8ebf;" vertex="1" parent="1">
          <mxGeometry x="680" y="280" width="80" height="80" as="geometry" />
        </mxCell>
        <mxCell id="Bt69vcLoT0_8ECt38-JR-20" value="" style="edgeStyle=orthogonalEdgeStyle;rounded=0;orthogonalLoop=1;jettySize=auto;html=1;" edge="1" parent="1" source="Bt69vcLoT0_8ECt38-JR-17" target="Bt69vcLoT0_8ECt38-JR-19">
          <mxGeometry relative="1" as="geometry" />
        </mxCell>
        <mxCell id="Bt69vcLoT0_8ECt38-JR-17" value="&lt;div&gt;uci指令脚本&lt;/div&gt;&lt;div&gt;修改配置文件&lt;/div&gt;" style="rounded=1;whiteSpace=wrap;html=1;fillColor=#dae8fc;strokeColor=#6c8ebf;" vertex="1" parent="1">
          <mxGeometry x="800" y="280" width="80" height="80" as="geometry" />
        </mxCell>
        <mxCell id="Bt69vcLoT0_8ECt38-JR-19" value="&lt;div&gt;更新配置&lt;/div&gt;&lt;div&gt;等待新配置&lt;/div&gt;&lt;div&gt;生效&lt;/div&gt;" style="rounded=1;whiteSpace=wrap;html=1;fillColor=#dae8fc;strokeColor=#6c8ebf;" vertex="1" parent="1">
          <mxGeometry x="920" y="280" width="80" height="80" as="geometry" />
        </mxCell>
        <mxCell id="Bt69vcLoT0_8ECt38-JR-21" value="" style="endArrow=none;dashed=1;html=1;rounded=0;strokeColor=#FF3333;" edge="1" parent="1">
          <mxGeometry width="50" height="50" relative="1" as="geometry">
            <mxPoint x="100" y="440" as="sourcePoint" />
            <mxPoint x="100" y="160" as="targetPoint" />
          </mxGeometry>
        </mxCell>
        <mxCell id="Bt69vcLoT0_8ECt38-JR-22" value="&lt;font style=&quot;font-size: 19px;&quot;&gt;用户侧&lt;/font&gt;" style="text;html=1;align=center;verticalAlign=middle;whiteSpace=wrap;rounded=0;" vertex="1" parent="1">
          <mxGeometry x="10" y="190" width="60" height="30" as="geometry" />
        </mxCell>
        <mxCell id="Bt69vcLoT0_8ECt38-JR-23" value="&lt;font style=&quot;font-size: 19px;&quot;&gt;AP侧&lt;/font&gt;" style="text;html=1;align=center;verticalAlign=middle;whiteSpace=wrap;rounded=0;" vertex="1" parent="1">
          <mxGeometry x="130" y="190" width="60" height="30" as="geometry" />
        </mxCell>
      </root>
    </mxGraphModel>
  </diagram>
</mxfile>
